<svg width="37" height="17" viewBox="0 0 37 17" fill="none" xmlns="http://www.w3.org/2000/svg">
<rect width="37" height="16.5319" fill="#FFD634"/>
<path d="M6.28223 8.90756H9.50044V7.95973H6.28223V8.90756ZM10.7786 11.5747H15.7933V10.6269H11.9138C11.9578 8.85245 15.672 8.45569 15.672 5.89875C15.672 4.55415 14.647 3.66143 13.2253 3.66143C12.0791 3.66143 11.1974 4.32271 10.7565 5.13828L11.5611 5.67832C11.8917 5.11624 12.4869 4.68641 13.1371 4.68641C13.9637 4.68641 14.5478 5.21543 14.5478 5.9759C14.5478 7.80543 10.7235 8.21322 10.7235 10.9796C10.7235 11.1669 10.7455 11.3653 10.7786 11.5747ZM16.9752 10.6269C17.5593 11.3322 18.452 11.707 19.3668 11.707C20.9318 11.707 22.1221 10.5828 22.1221 9.09492C22.1221 7.6842 21.0531 6.549 19.4109 6.549C19.0362 6.549 18.5843 6.68126 18.3969 6.78045H18.3749C18.3749 6.78045 18.419 6.62615 18.441 6.38369L18.6174 4.74151H21.6041V3.79368H17.6695L17.2838 7.65113L17.923 7.88258C18.2867 7.64011 18.7827 7.49683 19.2346 7.49683C20.2375 7.49683 20.998 8.15811 20.998 9.09492C20.998 10.0427 20.2155 10.671 19.3007 10.671C18.4961 10.671 17.923 10.2411 17.5924 9.83335L16.9752 10.6269ZM24.8496 6.92373C25.7754 6.92373 26.5359 6.19632 26.5359 5.29258C26.5359 4.39986 25.7754 3.66143 24.8496 3.66143C23.9239 3.66143 23.1854 4.39986 23.1854 5.29258C23.1854 6.19632 23.9239 6.92373 24.8496 6.92373ZM23.3507 11.5747H24.3978L30.3493 3.79368H29.3133L23.3507 11.5747ZM24.8496 6.10815C24.3978 6.10815 24.0451 5.75547 24.0451 5.29258C24.0451 4.84071 24.3978 4.46598 24.8496 4.46598C25.3125 4.46598 25.6762 4.84071 25.6762 5.29258C25.6762 5.75547 25.3125 6.10815 24.8496 6.10815ZM27.1862 10.0868C27.1862 10.9796 27.9246 11.707 28.8504 11.707C29.7762 11.707 30.5256 10.9796 30.5256 10.0868C30.5256 9.18309 29.7762 8.44466 28.8504 8.44466C27.9246 8.44466 27.1862 9.18309 27.1862 10.0868ZM28.0458 10.0758C28.0458 9.62394 28.3875 9.24922 28.8504 9.24922C29.3133 9.24922 29.6659 9.62394 29.6659 10.0758C29.6659 10.5277 29.3133 10.8914 28.8504 10.8914C28.3875 10.8914 28.0458 10.5277 28.0458 10.0758Z" fill="#2B150D"/>
</svg>
