<svg width="57" height="57" viewBox="0 0 57 57" fill="none" xmlns="http://www.w3.org/2000/svg">
<g clip-path="url(#clip0_360_14314)">
<path d="M29.0322 44.2377C28.9308 44.2377 28.8294 44.2377 28.7272 44.2373C26.3259 44.2431 24.1071 44.1821 21.9493 44.0507C19.971 43.9304 18.1653 43.2467 16.7269 42.0739C15.339 40.9421 14.3912 39.4119 13.91 37.5262C13.4912 35.8845 13.4689 34.2729 13.4477 32.7142C13.4323 31.5958 13.4164 30.2706 13.4131 28.9229C13.4164 27.5696 13.4323 26.2444 13.4477 25.126C13.4689 23.5675 13.4912 21.9559 13.91 20.314C14.3912 18.4282 15.339 16.898 16.7269 15.7663C18.1653 14.5935 19.971 13.9098 21.9496 13.7894C24.1073 13.6583 26.3266 13.5971 28.7331 13.6029C31.1351 13.5978 33.3532 13.6583 35.5109 13.7894C37.4892 13.9098 39.295 14.5935 40.7334 15.7663C42.1215 16.898 43.069 18.4282 43.5503 20.314C43.9691 21.9557 43.9913 23.5675 44.0126 25.126C44.028 26.2444 44.0441 27.5696 44.0472 28.9173V28.9229C44.0441 30.2706 44.028 31.5958 44.0126 32.7142C43.9913 34.2727 43.9693 35.8843 43.5503 37.5262C43.069 39.4119 42.1215 40.9421 40.7334 42.0739C39.295 43.2467 37.4892 43.9304 35.5109 44.0507C33.4446 44.1765 31.3218 44.2377 29.0322 44.2377ZM28.7272 41.8439C31.0895 41.8495 33.2585 41.7899 35.3656 41.6618C36.8614 41.5709 38.1584 41.0854 39.2209 40.219C40.203 39.418 40.8795 38.3129 41.2312 36.9344C41.5799 35.5678 41.6 34.1004 41.6194 32.6815C41.6346 31.5706 41.6505 30.2547 41.6538 28.9201C41.6505 27.5853 41.6346 26.2696 41.6194 25.1587C41.6 23.7397 41.5799 22.2724 41.2312 20.9055C40.8795 19.527 40.203 18.4219 39.2209 17.6209C38.1584 16.7548 36.8614 16.2693 35.3656 16.1784C33.2585 16.0501 31.0895 15.9909 28.7328 15.9961C26.371 15.9905 24.2018 16.0501 22.0947 16.1784C20.5988 16.2693 19.3019 16.7548 18.2393 17.6209C17.2572 18.4219 16.5808 19.527 16.229 20.9055C15.8803 22.2724 15.8602 23.7395 15.8408 25.1587C15.8256 26.2705 15.8097 27.5871 15.8065 28.9229C15.8097 30.2528 15.8256 31.5696 15.8408 32.6815C15.8602 34.1004 15.8803 35.5678 16.229 36.9344C16.5808 38.3129 17.2572 39.418 18.2393 40.219C19.3019 41.0852 20.5988 41.5706 22.0947 41.6616C24.2018 41.7899 26.3715 41.8497 28.7272 41.8439ZM28.6702 36.3994C24.5463 36.3994 21.1909 33.0442 21.1909 28.9201C21.1909 24.7959 24.5463 21.4408 28.6702 21.4408C32.7943 21.4408 36.1495 24.7959 36.1495 28.9201C36.1495 33.0442 32.7943 36.3994 28.6702 36.3994ZM28.6702 23.8342C25.8659 23.8342 23.5842 26.1158 23.5842 28.9201C23.5842 31.7244 25.8659 34.006 28.6702 34.006C31.4747 34.006 33.7561 31.7244 33.7561 28.9201C33.7561 26.1158 31.4747 23.8342 28.6702 23.8342ZM36.9872 19.0474C35.9959 19.0474 35.1921 19.851 35.1921 20.8424C35.1921 21.8339 35.9959 22.6375 36.9872 22.6375C37.9787 22.6375 38.7822 21.8339 38.7822 20.8424C38.7822 19.851 37.9787 19.0474 36.9872 19.0474Z" fill="#FF7A1B"/>
</g>
<circle cx="28.3831" cy="28.5726" r="26.5094" stroke="#FF7A1B" stroke-width="3.53458"/>
<defs>
<clipPath id="clip0_360_14314">
<rect width="30.6353" height="30.6353" fill="white" transform="translate(13.4131 13.6025)"/>
</clipPath>
</defs>
</svg>
