<svg width="70" height="44" viewBox="0 0 70 44" fill="none" xmlns="http://www.w3.org/2000/svg">
<path d="M65.5874 0H4.25645C2.23554 0 0.595703 1.66127 0.595703 3.71064V39.9772C0.595703 42.027 2.23466 43.6879 4.25645 43.6879H65.5874C67.6084 43.6879 69.2482 42.0267 69.2482 39.9772V3.71064C69.2482 1.66092 67.6092 0 65.5874 0V0ZM27.9821 31.1675C27.9137 33.4163 25.9789 35.385 23.7549 35.4412C21.5035 35.4478 19.2517 35.4421 17.0001 35.444V25.9492C18.672 26.2597 20.3528 26.5941 22.0633 26.493C23.7038 26.4065 25.6825 26.1521 26.622 24.5968C27.3174 23.448 27.0057 22.0774 27.0634 20.8068L27.0421 17.5576L23.2382 17.5792C23.2199 19.4694 23.2758 21.3637 23.2083 23.2512C23.0621 24.5064 21.7365 25.1512 20.5981 25.0352C19.2815 25.0228 18.1095 24.5248 16.9975 24.1928H16.9975C16.9975 24.1928 16.9726 15.891 17.0003 12.068C17.3714 9.83355 19.6286 8.16115 21.8393 8.36529H28.0006C27.9935 15.9658 27.9944 23.5669 27.9821 31.1664V31.1675ZM40.4159 31.2612C40.272 33.6337 38.0133 35.6256 35.6723 35.4002H29.4159V25.0081C31.0471 26.3138 33.2508 26.5099 35.2611 26.4837C36.5829 26.4486 37.8955 26.2506 39.17 25.8942L39.1424 24.0103C37.3446 24.8872 35.1163 25.5068 33.241 24.5088C31.7511 23.6448 31.5761 21.4693 32.3725 20.0694C33.3562 18.6172 35.3432 18.574 36.8901 18.8811C37.6491 18.9496 38.6688 19.6377 39.17 19.6222V17.8974C36.5754 17.2327 33.7953 17.0175 31.1958 17.7702C30.5496 17.9941 29.9168 18.311 29.4159 18.7888L29.4158 18.7886C29.43 16.6516 29.3869 14.5122 29.439 12.3763C29.5932 10.3409 31.2811 8.62785 33.2655 8.37929C35.2609 8.31269 37.2631 8.36877 39.2611 8.35025H40.4238C40.4186 15.9872 40.4341 23.6249 40.4159 31.2618V31.2612ZM48.6652 35.2514C46.3402 35.271 44.0132 35.2541 41.6872 35.2597V26.0813H48.6154C49.9049 26.1315 51.4748 25.2953 51.4436 23.823C51.4671 22.4576 50.0786 21.6792 48.8887 21.5829C49.841 21.4706 50.8101 20.7933 50.9022 19.7612C51.1222 18.4122 49.8283 17.4495 48.6153 17.4192C46.3071 17.3819 43.9963 17.4137 41.6872 17.4031V12.8793C41.5307 10.5285 43.4917 8.34547 45.7986 8.20436C48.0924 8.17419 50.3878 8.19984 52.6822 8.19132V30.7221C52.7967 33.0044 50.8764 35.051 48.6652 35.2521V35.2514ZM46.4323 22.3554C46.4324 22.3554 47.6861 22.2819 47.6861 23.5406C47.6861 24.7993 46.4397 24.7258 46.4323 24.7258H43.8894V22.3554H46.4323ZM43.8894 21.0596V18.8534H46.267C46.267 18.8534 47.381 18.8534 47.381 19.9549C47.381 21.0563 46.267 21.0596 46.267 21.0596H43.8894Z" fill="#606060"/>
</svg>
