<svg width="76" height="45" viewBox="0 0 76 45" fill="none" xmlns="http://www.w3.org/2000/svg">
<path fill-rule="evenodd" clip-rule="evenodd" d="M37.8748 38.7495C42.3649 34.6958 45.1974 28.8118 45.1974 22.273C45.1974 15.7351 42.3653 9.85061 37.8748 5.7536C33.952 2.17914 28.7214 0 22.9682 0C10.6763 0 0.694824 9.98148 0.694824 22.273C0.694824 34.5645 10.6763 44.5022 22.9682 44.5022C28.7214 44.5022 33.9524 42.3235 37.8748 38.7495Z" fill="#606060"/>
<path fill-rule="evenodd" clip-rule="evenodd" d="M37.875 38.7498C42.3651 34.6961 45.1976 28.8121 45.1976 22.2733C45.1976 15.7354 42.3655 9.85092 37.875 5.75391V38.7498Z" fill="#606060"/>
<path fill-rule="evenodd" clip-rule="evenodd" d="M52.8266 0C47.073 0 41.8419 2.17914 37.8758 5.7536C37.0906 6.49513 36.3485 7.28085 35.6528 8.10693H40.142C40.753 8.8479 41.3194 9.67597 41.8419 10.4607H33.9529C33.4838 11.2262 33.0475 12.0114 32.6452 12.814H43.1064C43.4547 13.5988 43.804 14.3831 44.0648 15.1678H31.7296C31.4658 15.9536 31.2474 16.754 31.0757 17.5649H44.7187C45.0355 19.1141 45.1959 20.6912 45.1975 22.2725C45.1975 24.7134 44.8049 27.111 44.0644 29.3339H31.7296C31.9968 30.1325 32.3022 30.9178 32.6447 31.6872H43.1059C42.7133 32.472 42.3211 33.3 41.8414 34.0405H33.9525C34.4692 34.8599 35.0369 35.6459 35.6524 36.3939H40.1415C39.443 37.2315 38.6857 38.0182 37.8753 38.7481C41.8414 42.3221 47.0725 44.5008 52.8261 44.5008C65.1176 44.5008 75.0553 34.5631 75.0553 22.2716C75.0557 9.98148 65.1176 0 52.8266 0Z" fill="#535353"/>
<path fill-rule="evenodd" clip-rule="evenodd" d="M67.3838 27.0668C67.3838 26.6751 67.7331 26.3701 68.1252 26.3701C68.5169 26.3701 68.8229 26.6751 68.8229 27.0668C68.8229 27.4594 68.5169 27.8083 68.1252 27.8083C67.7331 27.8087 67.3838 27.4594 67.3838 27.0668ZM68.1257 27.6341C68.4307 27.6341 68.6487 27.3723 68.6487 27.0673C68.6487 26.7622 68.4307 26.5443 68.1257 26.5443C67.8206 26.5443 67.5589 26.7622 67.5589 27.0673C67.5589 27.3723 67.8206 27.6341 68.1257 27.6341ZM68.0381 27.3719H67.8635V26.7618H68.1252C68.2118 26.7618 68.2556 26.7618 68.2989 26.806C68.3432 26.8493 68.386 26.8931 68.386 26.9364C68.386 27.0235 68.3427 27.1111 68.2556 27.1111L68.386 27.3719H68.2114L68.1248 27.1539H68.0377V27.3719H68.0381ZM68.0381 27.0235H68.2118V26.8931H68.0381V27.0235ZM20.179 27.8087H17.3893L19.0454 19.1345L15.2535 27.8087H12.7255L12.2896 19.1779L10.6334 27.8087H8.10547L10.2408 16.519H14.5996L14.818 23.4928L17.869 16.519H22.3581L20.179 27.8087ZM51.1261 27.6769C50.3414 27.8958 49.7751 27.982 49.1207 27.982C47.7259 27.982 46.9416 27.2852 46.9416 25.9775C46.9416 25.7157 46.9849 25.4545 47.0282 25.1494L47.2029 24.2333L47.3342 23.5366L48.5977 16.5186H51.3436L50.951 18.6111H52.3892L51.9975 20.834H50.5584L49.8608 24.6702C49.8175 24.8439 49.7742 24.9752 49.7742 25.0628C49.7742 25.5416 50.0792 25.7595 50.7326 25.7595C51.0377 25.7595 51.2994 25.7162 51.4731 25.6729L51.1261 27.6769Z" fill="#1F1F1F"/>
<path fill-rule="evenodd" clip-rule="evenodd" d="M59.1894 18.6989C58.9714 18.6118 58.9285 18.6118 58.8843 18.6118C58.7539 18.568 58.6663 18.568 58.6663 18.5247H58.3613C57.4461 18.5247 56.7927 18.9169 55.9646 20.0067L56.2255 18.6118H53.6975L51.998 27.809H54.7873C55.79 22.1858 56.1821 21.1836 57.5332 21.1836C57.6203 21.1836 57.7512 21.2273 57.8825 21.2273L58.1876 21.3144L59.1894 18.6989ZM40.1416 21.5319C40.1416 22.665 40.7959 23.4931 42.2783 24.0604C43.4114 24.5391 43.5851 24.6705 43.5851 25.1064C43.5851 25.6732 43.0621 25.9344 41.9732 25.9344C41.1443 25.9344 40.3604 25.804 39.4453 25.5418L39.096 27.6777H39.2273L39.7061 27.809C39.8807 27.809 40.1416 27.8523 40.4475 27.8523C41.1009 27.9394 41.624 27.9394 42.0161 27.9394C44.9367 27.9394 46.3315 26.9809 46.3315 24.8884C46.3315 23.6249 45.7647 22.883 44.3261 22.3167C43.1488 21.8808 43.0184 21.7503 43.0184 21.3144C43.0184 20.8347 43.4981 20.5735 44.4132 20.5735C44.9362 20.5735 45.721 20.6172 46.4177 20.7043L46.8103 18.6123C46.0698 18.4814 44.9795 18.4381 44.3694 18.4381C41.2314 18.4372 40.1416 19.832 40.1416 21.5319ZM29.1583 27.809H26.8916L26.9354 26.8496C26.2377 27.5901 25.2788 27.9394 24.0148 27.9394C22.5328 27.9394 21.4868 26.9367 21.4868 25.4552C21.4868 23.2323 23.2738 21.9241 26.369 21.9241C26.6741 21.9241 27.0662 21.9241 27.5022 21.9674C27.5892 21.6623 27.5892 21.5315 27.5892 21.4011C27.5892 20.7909 27.1095 20.573 25.8022 20.573C25.0175 20.573 24.1461 20.6601 23.536 20.791L23.1434 20.9218L22.8821 20.9656L23.2743 18.9169C24.6691 18.568 25.5405 18.4372 26.587 18.4372C28.9841 18.4372 30.2048 19.3523 30.2048 21.096C30.2048 21.5757 30.1615 21.9245 29.9868 22.9263L29.4205 26.1962L29.3334 26.7625L29.2463 27.2422L29.203 27.5473L29.1583 27.809ZM27.1529 23.7111C26.8478 23.6677 26.7169 23.6677 26.5428 23.6677C24.9737 23.6677 24.189 24.1474 24.189 25.0626C24.189 25.6289 24.5378 26.0211 25.1479 26.0211C26.2815 26.0215 27.1091 25.0631 27.1529 23.7111ZM38.2679 27.5901C37.309 27.8518 36.3938 27.9827 35.4349 27.9827C32.3401 27.9827 30.7273 26.5445 30.7273 23.8429C30.7273 20.7039 32.7756 18.3938 35.5653 18.3938C37.832 18.3938 39.2706 19.7016 39.2706 21.7066C39.2706 22.4038 39.1835 23.0581 38.9656 23.9733H33.4295V24.2783C33.4295 25.3243 34.2142 25.8911 35.827 25.8911C36.8141 25.897 37.7923 25.7043 38.7034 25.3243L38.2679 27.5901ZM36.7855 22.142V21.6623C36.7855 20.9214 36.3058 20.4854 35.4782 20.4854C34.6064 20.4854 33.9963 21.0955 33.7345 22.1416H36.7855V22.142ZM67.8207 23.6244C67.3843 26.6754 65.2485 28.0265 62.4154 28.0265C59.3211 28.0265 58.0567 26.1519 58.0567 23.7982C58.0567 20.5725 60.1925 18.3496 63.5052 18.3496C66.3816 18.3496 67.9073 20.1804 67.9073 22.4904C67.9068 23.0576 67.9068 23.101 67.8207 23.6244ZM64.943 22.4475C64.943 21.4881 64.5504 20.6168 63.4172 20.6168C62.0224 20.6168 61.151 22.2729 61.151 23.7553C61.151 24.9755 61.7611 25.8036 62.7196 25.8036C63.3297 25.8036 64.6374 24.9755 64.8554 23.5807C64.9429 23.2323 64.943 22.8397 64.943 22.4475Z" fill="#1F1F1F"/>
</svg>
