<svg width="75" height="44" viewBox="0 0 75 44" fill="none" xmlns="http://www.w3.org/2000/svg">
<path d="M21.6829 43.974C33.6496 43.974 43.3559 34.2578 43.3559 22.2911C43.3559 10.3244 33.6497 0.618164 21.6829 0.618164C9.70623 0.618164 0 10.3244 0 22.2911C0 34.2578 9.70623 43.974 21.6829 43.974Z" fill="#535353"/>
<path d="M53.2208 43.973C65.1875 43.973 74.8937 34.2568 74.8937 22.2901C74.8937 10.3234 65.1876 0.617188 53.2208 0.617188C41.244 0.617188 31.5479 10.3234 31.5479 22.2901C31.5479 34.2568 41.244 43.973 53.2208 43.973Z" fill="#535353"/>
<path d="M37.437 37.1613C33.7885 33.2748 31.5479 28.04 31.5479 22.2896C31.5479 16.5987 33.7489 11.4135 37.328 7.54688L37.784 7.78482C41.2442 11.6316 43.3561 16.7177 43.3561 22.2896C43.3561 27.8913 41.2245 32.9873 37.7445 36.844L37.437 37.1613Z" fill="#606060"/>
<path d="M4.25342 16.8574H6.14707L8.57611 22.9151L10.7474 16.8574H12.7501V24.9278H11.1935V18.9395L9.11149 24.9278H7.93167L5.84964 19.0188V24.9278H4.25342V16.8574Z" fill="#1F1F1F"/>
<path d="M20.7206 24.9277V18.751H19.3921V24.9277H20.7206Z" fill="#1F1F1F"/>
<path d="M29.6045 24.9271V16.9658H28.2065V24.9271H29.6045Z" fill="#1F1F1F"/>
<path d="M27.4033 18.75V20.2272H30.5164V18.75H27.4033Z" fill="#1F1F1F"/>
<path d="M58.9607 24.9277V18.751H57.6323V24.9277H58.9607Z" fill="#1F1F1F"/>
<path d="M70.9579 24.9274V17.2041H69.6294V24.9274H70.9579Z" fill="#1F1F1F"/>
<path d="M40.8674 18.7507H39.4893V24.9274H40.8871V20.8425C41.2142 20.1783 42.1958 20.0395 42.3544 20.0395V18.7109C42.0272 18.7109 40.9069 18.9588 40.8672 19.5636V18.7507H40.8674Z" fill="#1F1F1F"/>
<path d="M61.9945 18.7507H60.6064V24.9274H62.0144V20.8425C62.3317 20.1783 63.3231 20.0395 63.4719 20.0395V18.7109C63.1545 18.7109 62.0343 18.9588 61.9945 19.5636V18.7507Z" fill="#1F1F1F"/>
<path d="M24.885 20.5154H26.2433C26.2433 19.4348 25.5493 18.7705 24.4091 18.7705C23.269 18.7705 22.3667 19.3654 22.3667 20.6939C22.3667 22.0223 23.7647 22.2108 23.9927 22.2703C24.2703 22.3495 25.0337 22.4388 25.0337 23.2816C25.0337 23.5988 24.657 23.6781 24.3298 23.6781C24.0125 23.6781 23.6854 23.4303 23.6854 23.0635H22.1685C22.1685 24.4515 23.2491 25.0067 24.3298 25.0067C25.4105 25.0067 26.4416 24.1341 26.4416 23.0831C26.4416 22.0522 25.4303 21.4473 24.6371 21.3283C23.4375 21.1597 23.5565 20.1187 24.2505 20.1187C24.9048 20.1189 24.8652 20.4064 24.885 20.5154Z" fill="#1F1F1F"/>
<path d="M49.78 22.7168C49.2843 23.3415 48.5209 23.738 47.6682 23.738C46.1811 23.738 44.9814 22.5384 44.9814 21.0711C44.9814 19.5839 46.1811 18.3842 47.6682 18.3842C48.5109 18.3842 49.2744 18.7709 49.7602 19.3856H51.5051C50.8607 17.8588 49.3636 16.8574 47.6682 16.8574C45.3383 16.8574 43.4546 18.7412 43.4546 21.0711C43.4546 23.3811 45.3383 25.2748 47.6682 25.2748C49.3933 25.2748 50.8805 24.2042 51.5348 22.7168H49.78Z" fill="#1F1F1F"/>
<path d="M67.7652 25.0762C69.5398 25.0762 70.9873 23.6286 70.9873 21.8638C70.9873 20.0792 69.5397 18.6416 67.7652 18.6416V20.0098C68.7863 20.0098 69.6192 20.8426 69.6192 21.8638C69.6192 22.8751 68.7863 23.7079 67.7652 23.7079V25.0762ZM67.7652 25.0762V23.7079C66.744 23.7079 65.9112 22.8751 65.9112 21.8638C65.9112 20.8426 66.744 20.0098 67.7652 20.0098V18.6416C65.9905 18.6416 64.543 20.0792 64.543 21.8638C64.543 23.6286 65.9905 25.0762 67.7652 25.0762Z" fill="#1F1F1F"/>
<path d="M55.7681 25.0762C57.5527 25.0762 58.9903 23.6286 58.9903 21.8638C58.9903 20.0792 57.5527 18.6416 55.7681 18.6416V20.0098C56.7893 20.0098 57.6221 20.8426 57.6221 21.8638C57.6221 22.8751 56.7893 23.7079 55.7681 23.7079V25.0762ZM55.7681 18.6417C53.9934 18.6417 52.5459 20.0793 52.5459 21.8639C52.5459 23.6287 53.9935 25.0763 55.7681 25.0763V23.708C54.7469 23.708 53.9141 22.8752 53.9141 21.8639C53.9141 20.8427 54.7469 20.0099 55.7681 20.0099V18.6417Z" fill="#1F1F1F"/>
<path d="M34.7898 22.498H37.9327C37.9426 22.4089 37.9527 22.3096 37.9527 22.2203V21.9527C37.9031 20.5151 37.0009 18.7503 34.79 18.7305V20.2275C35.5435 20.2275 36.2871 20.5746 36.2871 21.2586H34.79V22.498H34.7898ZM34.7898 25.0957C36.0391 25.0758 37.7939 24.2629 37.7939 23.2218H36.1184C36.1184 23.4698 35.4739 23.6977 34.7898 23.688V25.0957ZM33.2531 22.498H34.7898V21.2586H33.2928C33.2928 20.5746 34.0363 20.2275 34.7898 20.2275V18.7306C34.7799 18.7306 34.7601 18.7306 34.7502 18.7306C32.7475 18.7306 31.6569 20.3962 31.647 22.0222V22.0817C31.6767 23.6186 32.6582 25.0958 34.7304 25.0958C34.7502 25.0958 34.77 25.0958 34.7898 25.0958V23.6878C34.0363 23.6779 33.2531 23.3704 33.2531 22.498Z" fill="#1F1F1F"/>
<path d="M17.5391 25.0762C19.3138 25.0762 20.7613 23.6286 20.7613 21.8638C20.7613 20.0792 19.3138 18.6416 17.5391 18.6416V20.0098C18.5603 20.0098 19.3931 20.8426 19.3931 21.8638C19.3931 22.8751 18.5603 23.7079 17.5391 23.7079V25.0762ZM17.5391 25.0762V23.7079C16.5179 23.7079 15.6851 22.8751 15.6851 21.8638C15.6851 20.8426 16.5179 20.0098 17.5391 20.0098V18.6416C15.7545 18.6416 14.3169 20.0792 14.3169 21.8638C14.3169 23.6286 15.7545 25.0762 17.5391 25.0762Z" fill="#1F1F1F"/>
</svg>
