<svg width="107" height="30" viewBox="0 0 107 30" fill="none" xmlns="http://www.w3.org/2000/svg">
<path fill-rule="evenodd" clip-rule="evenodd" d="M10.7122 0.984285C11.6601 0.978782 14.4771 0.732569 15.6704 4.64064C16.4742 7.27317 17.7545 11.5854 19.5115 17.5772H20.2271C22.1113 11.2602 23.4056 6.94799 24.1101 4.64064C25.3158 0.69186 28.33 0.984362 29.5356 0.984362L38.8377 0.984373V29.0645H29.3568V12.5164H28.721L23.4359 29.0645H16.3027L11.0176 12.5042H10.3818V29.0645H0.900879V0.984373L10.7122 0.984285ZM52.4521 0.984373V17.5448H53.2084L59.6373 3.92728C60.8853 1.21735 63.5451 0.984373 63.5451 0.984373H72.7198V29.0646H63.0409V12.5042H62.2845L55.9817 26.1217C54.7337 28.8194 51.9479 29.0646 51.9479 29.0646H42.7732V0.984373H52.4521ZM106.174 14.3283C104.824 18.041 100.584 20.6999 95.8903 20.6999H85.7401V29.0646H76.536V14.3283H106.174Z" fill="#606060"/>
<path fill-rule="evenodd" clip-rule="evenodd" d="M96.3342 0.984373H76.0533C76.536 7.23599 82.0838 12.5878 87.827 12.5878H106.814C107.91 7.39195 104.138 0.984373 96.3342 0.984373Z" fill="#606060"/>
</svg>
