<svg width="98" height="32" viewBox="0 0 98 32" fill="none" xmlns="http://www.w3.org/2000/svg">
<path d="M63.4198 0.680664C56.5511 0.680664 50.4129 4.22519 50.4129 10.774C50.4129 18.2842 61.2993 18.8029 61.2993 22.5758C61.2993 24.1644 59.4707 25.5865 56.3475 25.5865C51.9151 25.5865 48.6023 23.5994 48.6023 23.5994L47.1848 30.2079C47.1848 30.2079 51.0011 31.8863 56.0678 31.8863C63.5775 31.8863 69.4867 28.1678 69.4867 21.507C69.4867 13.5711 58.555 13.0678 58.555 9.56593C58.555 8.32147 60.0561 6.95793 63.1704 6.95793C66.6842 6.95793 69.551 8.40305 69.551 8.40305L70.9382 2.02042C70.9382 2.02042 67.8189 0.680664 63.4198 0.680664ZM0.577453 1.16237L0.411133 2.12579C0.411133 2.12579 3.30083 2.65232 5.90346 3.70263C9.25458 4.90703 9.49329 5.60816 10.0577 7.78586L16.2077 31.3896H24.4519L37.1527 1.16237H28.9274L20.7664 21.714L17.4362 4.29348C17.1308 2.29971 15.5838 1.16237 13.6902 1.16237H0.577453ZM40.4602 1.16237L34.0077 31.3896H41.8512L48.281 1.16237H40.4602ZM84.206 1.16237C82.3147 1.16237 81.3126 2.17051 80.5772 3.9322L69.0861 31.3896H77.3113L78.9027 26.8133H88.9235L89.8911 31.3896H97.1487L90.8172 1.16237H84.206ZM85.2758 9.32884L87.7139 20.6716H81.182L85.2758 9.32884Z" fill="#606060"/>
</svg>
