<svg width="57" height="57" viewBox="0 0 57 57" fill="none" xmlns="http://www.w3.org/2000/svg">
<g clip-path="url(#clip0_360_14317)">
<path d="M44.1646 28.2292C44.1646 36.743 37.2091 43.6448 28.6272 43.6448C25.9039 43.6448 23.3456 42.9482 21.1186 41.7284L12.5171 44.4601L15.321 36.1867C13.9072 33.8648 13.0929 31.1383 13.0929 28.2281C13.094 19.7143 20.0474 12.8125 28.6293 12.8125C37.2102 12.8146 44.1646 19.7154 44.1646 28.2292ZM28.6262 15.2707C21.4241 15.2707 15.5655 21.0848 15.5655 28.2323C15.5655 31.0681 16.4902 33.6935 18.0536 35.8297L16.4231 40.6418L21.4406 39.0474C23.5045 40.4013 25.974 41.1897 28.6262 41.1897C35.8284 41.1897 41.6889 35.3766 41.6889 28.2292C41.691 21.0848 35.8294 15.2707 28.6262 15.2707ZM36.4733 31.7802C36.3763 31.6244 36.1225 31.5294 35.7427 31.3395C35.364 31.1497 33.4889 30.2364 33.1411 30.1125C32.7902 29.9856 32.5364 29.9216 32.2825 30.3003C32.0317 30.6791 31.3011 31.5294 31.0771 31.7833C30.8553 32.0361 30.6334 32.0681 30.2526 31.8813C29.8718 31.6894 28.6438 31.2931 27.1887 30.0062C26.0566 29.0031 25.2919 27.7679 25.0711 27.3891C24.8471 27.0114 25.0484 26.8071 25.2372 26.6193C25.4075 26.449 25.618 26.1776 25.8089 25.9557C25.9998 25.7359 26.0628 25.5801 26.1897 25.3273C26.3146 25.0744 26.2516 24.8546 26.1577 24.6637C26.0628 24.4738 25.3022 22.6163 24.9833 21.8598C24.6665 21.1044 24.3497 21.2293 24.1268 21.2293C23.9049 21.2293 23.6511 21.1983 23.3972 21.1983C23.1433 21.1983 22.7305 21.2902 22.3828 21.6689C22.035 22.0476 21.0505 22.9609 21.0505 24.8206C21.0505 26.6822 22.4137 28.4768 22.6046 28.7286C22.7966 28.9794 25.2403 32.9205 29.1112 34.4334C32.9842 35.9452 32.9842 35.4406 33.6819 35.3766C34.3815 35.3126 35.9357 34.4633 36.2515 33.582C36.5693 32.6966 36.5693 31.9381 36.4733 31.7802Z" fill="#BBBBBB"/>
</g>
<circle cx="28.2767" cy="28.5726" r="26.5094" stroke="#BBBBBB" stroke-width="3.53458"/>
<defs>
<clipPath id="clip0_360_14317">
<rect width="31.9672" height="31.9672" fill="white" transform="translate(12.1978 12.4932)"/>
</clipPath>
</defs>
</svg>
