<svg width="58" height="57" viewBox="0 0 58 57" fill="none" xmlns="http://www.w3.org/2000/svg">
<g clip-path="url(#clip0_360_14311)">
<path d="M28.3835 39.9487C28.3808 39.9487 28.3778 39.9487 28.3749 39.9487C27.4006 39.9423 18.788 39.867 16.3478 39.2345C14.6425 38.7951 13.2963 37.5062 12.8367 35.8713C12.1982 33.5738 12.2388 29.1503 12.2432 28.7971C12.2391 28.4455 12.1979 23.9854 12.8347 21.6689C12.8354 21.6668 12.8359 21.6644 12.8367 21.6623C13.2911 20.0462 14.6676 18.7173 16.3436 18.2768C16.3478 18.2756 16.3523 18.2746 16.3565 18.2735C18.769 17.6657 27.3987 17.5913 28.3749 17.585H28.3924C29.3691 17.5913 38.0046 17.6667 40.4224 18.3001C42.1233 18.7384 43.4685 20.0256 43.9293 21.6583C44.5917 23.9764 44.5304 28.4462 44.5237 28.8235C44.5284 29.1951 44.5671 33.579 43.9323 35.8881C43.9318 35.8905 43.9311 35.8926 43.9306 35.8947C43.4707 37.5295 42.1247 38.8184 40.4174 39.2583C40.4152 39.259 40.4127 39.2595 40.4105 39.2602C37.9982 39.8677 29.3683 39.9421 28.3924 39.9487C28.3894 39.9487 28.3864 39.9487 28.3835 39.9487ZM15.2728 22.289C14.7122 24.3337 14.7652 28.7368 14.7657 28.7812V28.8131C14.7489 30.0343 14.8078 33.5707 15.2731 35.2457C15.4987 36.0477 16.1626 36.6831 17.0045 36.9001C18.805 37.3669 25.8197 37.5137 28.3835 37.5309C30.9539 37.5137 37.979 37.3709 39.7661 36.9227C40.6054 36.705 41.267 36.0718 41.4941 35.2688C41.9599 33.5693 42.0183 30.0501 42.0013 28.8367C42.0013 28.824 42.0013 28.8112 42.0016 28.7985C42.0247 27.5627 41.9792 23.9849 41.4963 22.2965C41.4959 22.2949 41.4954 22.2932 41.4951 22.2916C41.2685 21.4859 40.6044 20.8506 39.7624 20.6336C37.9795 20.1663 30.9534 20.0199 28.3835 20.0027C25.8148 20.0199 18.7966 20.1626 17.0041 20.6102C16.1781 20.8298 15.4992 21.4878 15.2728 22.289ZM42.7127 35.5802H42.7135H42.7127ZM25.1686 33.6625V23.8709L33.9971 28.7668L25.1686 33.6625Z" fill="#BBBBBB"/>
</g>
<circle cx="28.8299" cy="28.5726" r="26.5094" stroke="#BBBBBB" stroke-width="3.53458"/>
<defs>
<clipPath id="clip0_360_14311">
<rect width="31.9672" height="30.6353" fill="white" transform="translate(12.5605 13.6025)"/>
</clipPath>
</defs>
</svg>
